<?xml version="1.0" encoding="utf-8"?>
<!-- Generator: Adobe Illustrator 16.0.0, SVG Export Plug-In . SVG Version: 6.00 Build 0)  -->
<!DOCTYPE svg PUBLIC "-//W3C//DTD SVG 1.1//EN" "http://www.w3.org/Graphics/SVG/1.1/DTD/svg11.dtd">
<svg version="1.1" xmlns="http://www.w3.org/2000/svg" xmlns:xlink="http://www.w3.org/1999/xlink" x="0px" y="0px" width="108px"
	 height="108px" viewBox="0 0 108 108" enable-background="new 0 0 108 108" xml:space="preserve">
<g id="search">
	<circle id="base_9_" fill-rule="evenodd" clip-rule="evenodd" fill="#CDD1D4" cx="54" cy="54" r="54"/>
	<path fill-rule="evenodd" clip-rule="evenodd" fill="#FFFFFF" d="M80.418,78.984l-1.414,1.414c-0.781,0.781-2.048,0.781-2.829,0
		l-10.46-10.461c-9.416,7.333-23.031,6.69-31.688-1.966c-9.373-9.374-9.373-24.571,0-33.943c9.373-9.374,24.57-9.374,33.943,0
		c8.65,8.649,9.298,22.249,1.983,31.664l10.464,10.464C81.199,76.938,81.199,78.203,80.418,78.984z M65.142,36.857
		c-7.811-7.811-20.474-7.811-28.284,0s-7.811,20.474,0,28.286c7.811,7.811,20.474,7.811,28.284,0
		C72.953,57.331,72.952,44.667,65.142,36.857z"/>
	<path fill-rule="evenodd" clip-rule="evenodd" fill="#434A50" d="M67,23c6.628,0,12,5.373,12,12c0,6.627-5.372,12-12,12
		c-6.627,0-11.999-5.373-11.999-12C55.001,28.373,60.373,23,67,23z"/>
	<path fill-rule="evenodd" clip-rule="evenodd" fill="#FFFFFF" d="M71.914,34.792l0.011,0.019l-5.879,6.967l-0.008-0.002
		c-0.103,0.136-0.272,0.231-0.475,0.231c-0.319,0-0.578-0.223-0.578-0.499c0-0.005,0.004-0.009,0.004-0.014l-0.011-0.003
		l0.993-4.859c0.018-0.048,0.034-0.097,0.034-0.149c0-0.275-0.259-0.498-0.577-0.498c-0.009,0-0.016,0.003-0.023,0.004l-0.002-0.001
		l-2.729-0.014c-0.023,0.002-0.044,0.012-0.067,0.012c-0.319,0-0.578-0.223-0.578-0.499c0-0.092,0.037-0.173,0.087-0.248
		l-0.004-0.005l5.804-7.012l0.007,0.002c0.1-0.149,0.279-0.255,0.493-0.255c0.319,0,0.578,0.224,0.578,0.498
		c0,0.008-0.005,0.015-0.006,0.023L69,28.493l-0.948,4.805c-0.03,0.06-0.047,0.126-0.047,0.196c0,0.275,0.259,0.498,0.577,0.498
		c0.011,0,0.02-0.004,0.029-0.005l0.013,0.01h2.812c0.011,0,0.02-0.005,0.03-0.005c0.318,0,0.577,0.223,0.577,0.499
		C72.044,34.606,71.991,34.708,71.914,34.792z"/>
</g>
</svg>