<?xml version="1.0" encoding="utf-8"?>
<!-- Generator: Adobe Illustrator 16.0.0, SVG Export Plug-In . SVG Version: 6.00 Build 0)  -->
<!DOCTYPE svg PUBLIC "-//W3C//DTD SVG 1.1//EN" "http://www.w3.org/Graphics/SVG/1.1/DTD/svg11.dtd">
<svg version="1.1" xmlns="http://www.w3.org/2000/svg" xmlns:xlink="http://www.w3.org/1999/xlink" x="0px" y="0px" width="108px"
	 height="108px" viewBox="0 0 108 108" enable-background="new 0 0 108 108" xml:space="preserve">
<g id="privacy">
	<circle id="base" fill-rule="evenodd" clip-rule="evenodd" fill="#CDD1D4" cx="54" cy="54" r="54"/>
	<path fill-rule="evenodd" clip-rule="evenodd" fill="#434A50" d="M66.855,50.024c9.998-14.767,13.104-0.47,25.675-7.845
		c1.543-1.014,3.467,1.984,1.88,2.998c-10.328,6.978-14.573-1.699-20.837,2.911c8.442-2.199,8.469,7.476,20.612,6.088
		c2.266-0.355,2.464,3.218,0.51,3.529c-15.584,2.435-12.682-11.444-25.808-3.13L66.855,50.024z"/>
	<path fill-rule="evenodd" clip-rule="evenodd" fill="#FFFFFF" d="M91.154,90.277c-9.445,9.695-22.637,15.725-37.241,15.725
		c-14.702,0-27.969-6.111-37.428-15.92c6.744-4.217,24.695-6.236,27.422-14.277c0,0-1.664-4.521-2.005-9.371
		c0,0-5.18-3.279-5.495-10.789c-0.314-7.516,1.719-3.654,1.719-3.654S31.102,26.523,53.76,26.523c4.167,0,3.625,1.669,5.587,1.669
		c16.678,0,10.926,23.168,10.926,23.168s1.596-1.031,1.545,2.091c-0.043,2.656-1.469,10.521-5.766,12.726
		c0,0-1.457,6.514-2.734,9.74C65.035,82.979,83.967,85.697,91.154,90.277z"/>
	<path fill-rule="evenodd" clip-rule="evenodd" fill="#434A50" d="M58,60c-2.125,0-2.688-4-4-4s-1.875,4-4,4
		s-14.002-2.272-14.002-7.707s6.822-7.292,18.006-7.292s18,1.857,18,7.292S60.125,60,58,60z M46.996,50.005
		c-2.215,0-4.01,1.999-4.01,1.999s1.795,1.998,4.01,1.998s4.01-1.998,4.01-1.998S49.211,50.005,46.996,50.005z M60.996,50.005
		c-2.215,0-4.01,1.999-4.01,1.999s1.795,1.998,4.01,1.998s4.01-1.998,4.01-1.998S63.211,50.005,60.996,50.005z"/>
</g>
</svg>
